I am not ripper of this torrent I just want to share.
Credit == DjVikas


General
Complete name                    : Tron.Legacy.2010.Dual.Audio.Hindi-Eng.6ch.Bluray.720p.DjVikas.mkv
Format                           : Matroska
File size                        : 3.17 GiB
Duration                         : 2h 5mn
Overall bit rate                 : 3 630 Kbps
Movie name                       : Tron.Legacy.2010.Dual.Audio.Hindi-Eng.6ch.Bluray.720p.DjVikas
Writing application              : AVI-Mux GUI 1.17.8, Aug 30 2008  12:36:58
Writing library                  : matroska muxer by Alexander Noe, build date Aug 30 2008

Video
ID                               : 1
Format                           : V_MS/VFW/FOURCC
Codec ID                         : V_MS/VFW/FOURCC
Duration                         : 2h 5mn
Bit rate                         : 2 790 Kbps
Width                            : 1 280 pixels
Height                           : 720 pixels
Display aspect ratio             : 16:9
Frame rate                       : 23.976 fps
Bits/(Pixel*Frame)               : 0.126
Stream size                      : 2.44 GiB (77%)
Language                         : English

Audio #1
ID                               : 2
Format                           : AC-3
Format/Info                      : Audio Coding 3
Mode extension                   : CM (complete main)
Codec ID                         : A_AC3
Duration                         : 2h 5mn
Bit rate mode                    : Constant
Bit rate                         : 384 Kbps
Channel(s)                       : 6 channels
Channel positions                : Front: L C R, Side: L R, LFE
Sampling rate                    : 48.0 KHz
Bit depth                        : 16 bits
Stream size                      : 344 MiB (11%)
Title                            : English - DjVikas

Audio #2
ID                               : 3
Format                           : AC-3
Format/Info                      : Audio Coding 3
Mode extension                   : CM (complete main)
Codec ID                         : A_AC3
Duration                         : 2h 5mn
Bit rate mode                    : Constant
Bit rate                         : 384 Kbps
Channel(s)                       : 6 channels
Channel positions                : Front: L C R, Side: L R, LFE
Sampling rate                    : 48.0 KHz
Bit depth                        : 16 bits
Stream size                      : 344 MiB (11%)
Title                            : Hindi - DjVikas


Screenshots:
 
http://img845.imageshack.us/img845/1364/screenshot2e.png 
http://img228.imageshack.us/img228/4796/screenshot3oa.png 
http://img825.imageshack.us/img825/397/screenshot4jh.png

** Sample and screenshots are included.
